# xmcd
#
# Track frame offsets:
# 150
# 11097
# 24697
# 37898
# 51874
# 65991
# 81101
# 95525
# 106595
# 119575
# 131455
# 141236
#
# Disc length: 2046 seconds
#
#
# Revision: 0
# Processed by: cddbd v1.5.2PL0 Copyright (c) Steve Scherf et al.
# Submitted via: FreeRIP 2.951 
#
DISCID=a307fc0c
DTITLE=Radio Formula - Tiempo de bolero-Damas
DYEAR=1900
DGENRE=Bolero
TTITLE0=Toña la negra - Noche de ronda
TTITLE1=Amparo montes - La cita
TTITLE2=Elvira rios - Temor
TTITLE3=M luisa landin - Amor perdido
TTITLE4=Ana ma. Gonzalez - asi
TTITLE5=Mari avictoria - Mil besos
TTITLE6=Virginia lopez - Total
TTITLE7=Rebeca - Rival
TTITLE8=Avelina landin - Frio en el alma
TTITLE9=Olga guillot - Voy
TTITLE10=Chela campos - Por la cruz
TTITLE11=Sonia la unica - Esta noche la paso contigo
EXTD=
EXTT0=
EXTT1=
EXTT2=
EXTT3=
EXTT4=
EXTT5=
EXTT6=
EXTT7=
EXTT8=
EXTT9=
EXTT10=
EXTT11=
PLAYORDER=
